HIERARCHY
ROOT Hips
{
	OFFSET 0.000000 0.000000 0.000000
	CHANNELS 6 Xposition Yposition Zposition Zrotation Yrotation Xrotation 
	JOINT LHipJoint
	{
		OFFSET 0.000000 0.000000 0.000000
		CHANNELS 3 Zrotation Yrotation Xrotation
		JOINT LeftUpLeg
		{
			OFFSET 1.363060 -1.794630 0.839290
			CHANNELS 3 Zrotation Yrotation Xrotation
			JOINT LeftLeg
			{
				OFFSET 2.448110 -6.726130 0.000000
				CHANNELS 3 Zrotation Yrotation Xrotation
				JOINT LeftFoot
				{
					OFFSET 2.562200 -7.039590 0.000000
					CHANNELS 3 Zrotation Yrotation Xrotation
					JOINT LeftToeBase
					{
						OFFSET 0.157640 -0.433110 2.322550
						CHANNELS 3 Zrotation Yrotation Xrotation
						End Site
						{
							OFFSET 0.000000 0.000000 0.000000
						}
					}
				}
			}
		}
	}
	JOINT RHipJoint
	{
		OFFSET 0.000000 0.000000 0.000000
		CHANNELS 3 Zrotation Yrotation Xrotation
		JOINT RightUpLeg
		{
			OFFSET -1.305520 -1.794630 0.839290
			CHANNELS 3 Zrotation Yrotation Xrotation
			JOINT RightLeg
			{
				OFFSET -2.542530 -6.985550 0.000000
				CHANNELS 3 Zrotation Yrotation Xrotation
				JOINT RightFoot
				{
					OFFSET -2.568260 -7.056230 0.000000
					CHANNELS 3 Zrotation Yrotation Xrotation
					JOINT RightToeBase
					{
						OFFSET -0.164730 -0.452590 2.363150
						CHANNELS 3 Zrotation Yrotation Xrotation
						End Site
						{
							OFFSET 0.000000 0.000000 0.000000
						}
					}
				}
			}
		}
	}
	JOINT LowerBack
	{
		OFFSET 0.000000 0.000000 0.000000
		CHANNELS 3 Zrotation Yrotation Xrotation
		JOINT Spine
		{
			OFFSET 0.028270 2.035590 -0.193380
			CHANNELS 3 Zrotation Yrotation Xrotation
			JOINT Spine1
			{
				OFFSET 0.056720 2.048850 -0.042750
				CHANNELS 3 Zrotation Yrotation Xrotation
				JOINT Neck
				{
					OFFSET 0.000000 0.000000 0.000000
					CHANNELS 3 Zrotation Yrotation Xrotation
					JOINT Neck1
					{
						OFFSET -0.054170 1.746240 0.172020
						CHANNELS 3 Zrotation Yrotation Xrotation
						JOINT Head
						{
							OFFSET 0.104070 1.761360 -0.123970
							CHANNELS 3 Zrotation Yrotation Xrotation
							End Site
							{
								OFFSET 0.000000 0.000000 0.000000
							}
						}
					}
				}
				JOINT LeftShoulder
				{
					OFFSET 0.000000 0.000000 0.000000
					CHANNELS 3 Zrotation Yrotation Xrotation
					JOINT LeftArm
					{
						OFFSET 3.362410 1.200890 -0.311210
						CHANNELS 3 Zrotation Yrotation Xrotation
						JOINT LeftForeArm
						{
							OFFSET 4.983000 -0.000000 -0.000000
							CHANNELS 3 Zrotation Yrotation Xrotation
							JOINT LeftHand
							{
								OFFSET 3.483560 -0.000000 -0.000000
								CHANNELS 3 Zrotation Yrotation Xrotation
								JOINT LeftFingerBase
								{
									OFFSET 0.000000 0.000000 0.000000
									CHANNELS 3 Zrotation Yrotation Xrotation
									JOINT LeftHandIndex1
									{
										OFFSET 0.715260 -0.000000 -0.000000
										CHANNELS 3 Zrotation Yrotation Xrotation
										End Site
										{
											OFFSET 0.000000 0.000000 0.000000
										}
									}
								}
								JOINT LThumb
								{
									OFFSET 0.000000 0.000000 0.000000
									CHANNELS 3 Zrotation Yrotation Xrotation
									End Site
									{
										OFFSET 0.000000 0.000000 0.000000
									}
								}
							}
						}
					}
				}
				JOINT RightShoulder
				{
					OFFSET 0.000000 0.000000 0.000000
					CHANNELS 3 Zrotation Yrotation Xrotation
					JOINT RightArm
					{
						OFFSET -3.136600 1.374050 -0.404650
						CHANNELS 3 Zrotation Yrotation Xrotation
						JOINT RightForeArm
						{
							OFFSET -5.241900 -0.000000 -0.000000
							CHANNELS 3 Zrotation Yrotation Xrotation
							JOINT RightHand
							{
								OFFSET -3.444170 -0.000000 -0.000000
								CHANNELS 3 Zrotation Yrotation Xrotation
								JOINT RightFingerBase
								{
									OFFSET 0.000000 0.000000 0.000000
									CHANNELS 3 Zrotation Yrotation Xrotation
									JOINT RightHandIndex1
									{
										OFFSET -0.622530 -0.000000 -0.000000
										CHANNELS 3 Zrotation Yrotation Xrotation
										End Site
										{
											OFFSET 0.000000 0.000000 0.000000
										}
									}
								}
								JOINT RThumb
								{
									OFFSET 0.000000 0.000000 0.000000
									CHANNELS 3 Zrotation Yrotation Xrotation
									End Site
									{
										OFFSET 0.000000 0.000000 0.000000
									}
								}
							}
						}
					}
				}
			}
		}
	}
}
MOTION
Frames: 10
Frame Time: 0.008333
-1.873621 17.859984 1.396105 -17.897165 86.781553 -1.545821 1.677013 -0.311591 1.146011 -12.473901 2.249080 -37.240792 1.836340 10.540101 30.560217 -0.607257 4.420793 5.028859 1.355600 -7.370200 -20.816700 -1.453246 -1.454406 2.543909 15.191429 11.889624 -38.536630 -2.486473 -12.407116 34.010266 -0.131199 -2.416354 2.032923 -1.408600 7.506800 -21.225900 -14.162410 -0.548200 15.394871 29.394841 -13.224131 39.368916 -2.893872 -1.085795 -33.530865 -0.520511 7.116204 -24.864741 -3.481004 12.299233 -14.509763 -1.096600 6.386300 -1.664300 -2.549189 5.084780 -5.487707 -86.670101 -42.549517 39.658752 6.268614 -7.284974 -0.258081 -0.070559 -0.761415 69.373751 11.202873 11.408366 2.170100 -7.125000 0.000000 0.000000 -14.800800 41.485500 1.315200 -3.002871 2.602287 -3.041825 72.335917 28.086024 20.084057 -14.978529 21.722640 -2.740474 0.188012 0.135835 -24.562797 20.765383 1.530305 0.556000 7.125000 0.000000 0.000000 34.164700 -27.025200 18.152600 
-1.855866 17.878673 1.401504 -19.424702 87.041383 -2.992814 1.612234 -0.273809 1.113802 -12.274275 1.827877 -36.856629 1.715642 10.426281 30.063547 -0.688782 4.732725 5.107557 1.397100 -7.477600 -21.138300 -1.434311 -1.363912 2.421057 15.254801 11.719923 -38.205031 -2.423956 -12.291382 33.706526 -0.040792 -2.726108 1.989100 -1.419400 7.534500 -21.308900 -14.549111 -0.683225 15.484055 30.246287 -13.519634 38.851805 -3.024484 -1.161607 -33.389472 -0.666406 7.275997 -24.631859 -3.635157 12.481682 -14.662988 -1.181800 6.462900 -1.698700 -2.560290 5.039983 -5.508714 -89.438431 -42.743419 54.063396 6.497650 -7.932206 -0.330303 0.107986 -0.940953 48.888968 11.121260 11.908988 2.260800 -7.125000 0.000000 0.000000 -15.142100 42.166700 1.085800 -3.067019 2.686630 -2.991362 72.401918 25.969320 21.787642 -15.365028 22.322734 -2.893413 0.281190 0.197098 -23.921323 24.739402 5.009875 2.242100 7.125000 0.000000 0.000000 35.280800 -23.475700 22.914800 
-1.836450 17.896947 1.405968 -21.727371 87.281718 -5.168549 1.551224 -0.224637 1.053986 -12.029525 1.351571 -36.457670 1.592092 10.329533 29.571014 -0.767110 5.050601 5.168524 1.420800 -7.537900 -21.319200 -1.423651 -1.235772 2.242715 15.334763 11.596442 -37.851046 -2.366325 -12.179222 33.413979 0.086500 -3.156766 1.932827 -1.418600 7.532400 -21.302600 -15.058677 -0.737387 15.833025 31.531803 -13.821890 37.919876 -3.273531 -1.228123 -33.388398 -0.905010 7.426612 -24.294745 -3.816125 12.647393 -14.706363 -1.268500 6.530800 -1.723800 -2.621372 5.061157 -5.523101 -92.239512 -42.542146 65.867472 7.101475 -9.502521 -0.517942 0.374853 -1.129815 30.448571 10.490203 13.253590 2.358300 -7.125000 0.000000 0.000000 -16.260400 43.649200 0.557700 -3.168797 2.786394 -2.909744 72.429835 23.724070 23.055633 -15.601465 22.682084 -2.975264 0.354082 0.271024 -22.495218 27.479618 9.304514 4.672800 7.125000 0.000000 0.000000 35.413500 -19.235600 27.632200 
-1.814853 17.914910 1.409395 -23.892689 87.491049 -7.211326 1.503917 -0.159988 1.007269 -11.830018 0.855537 -36.061226 1.473804 10.237100 29.093903 -0.869305 5.440178 5.214337 1.405800 -7.499800 -21.204900 -1.399067 -1.098017 2.070612 15.381394 11.454226 -37.526695 -2.314849 -12.072276 33.142235 0.211360 -3.573025 1.879572 -1.439300 7.584700 -21.459600 -15.522860 -0.831388 16.114924 32.624520 -14.108114 37.097991 -3.473407 -1.297822 -33.398156 -1.108724 7.595138 -23.915075 -3.991226 12.823493 -14.831618 -1.361600 6.605300 -1.776000 -2.643765 5.084380 -5.559766 -95.038214 -42.231453 74.673868 7.993255 -11.603523 -0.819225 0.647842 -1.304867 14.990677 10.584263 15.023583 2.708100 -7.125000 0.000000 0.000000 -16.918300 45.677100 -0.291100 -3.249132 2.864461 -2.840885 72.413331 21.523672 24.154444 -15.837298 23.020563 -3.054943 0.404374 0.338416 -21.295243 29.194098 12.942987 6.921500 7.125000 0.000000 0.000000 35.261700 -15.664700 31.158800 
-1.793568 17.930173 1.414379 -25.057142 87.810040 -8.229506 1.469490 -0.125530 0.955166 -11.762689 0.362074 -35.726340 1.360822 10.134743 28.629864 -0.966526 5.800064 5.296007 1.448800 -7.608800 -21.532100 -1.363639 -0.993842 1.927295 15.317624 11.246380 -37.290252 -2.264423 -11.979479 32.884927 0.317114 -3.930592 1.837532 -1.420500 7.537300 -21.317300 -16.037137 -1.047188 16.215711 33.477793 -14.451064 36.481134 -3.524042 -1.376215 -33.310129 -1.223129 7.789951 -23.647216 -4.196507 13.028147 -14.871641 -1.462700 6.690200 -1.773700 -2.617451 5.074789 -5.625215 -98.198422 -41.969219 80.714351 8.884537 -13.459977 -1.138975 0.892246 -1.453656 2.945452 11.127433 17.079581 3.272000 -7.125000 0.000000 0.000000 -17.302400 48.047100 -1.338200 -3.316309 2.950827 -2.783497 72.300851 19.431501 25.343216 -16.175081 23.475055 -3.185834 0.425126 0.387758 -20.921148 29.737329 15.116372 8.208000 7.125000 0.000000 0.000000 34.988400 -13.616500 32.801700 
-1.773632 17.944813 1.417182 -28.179495 88.032365 -11.208591 1.469481 0.028189 0.955551 -11.649956 -0.151552 -35.466247 1.235326 10.064153 28.155827 -1.049758 6.162550 5.420988 1.550200 -7.858700 -22.285600 -1.302583 -0.767629 1.733685 15.348471 10.915228 -37.045060 -2.231241 -11.865874 32.661744 0.420174 -4.244863 1.769824 -1.452000 7.616800 -21.556100 -16.502431 -1.229589 16.340935 34.314210 -14.770018 35.882601 -3.615930 -1.443733 -33.245701 -1.288338 7.983327 -23.303031 -4.364373 13.214002 -14.984322 -1.571800 6.762500 -1.802700 -2.570980 5.086609 -5.700228 -101.454479 -41.551416 85.217545 9.872469 -15.338598 -1.540317 1.171329 -1.574759 -7.042152 10.940922 19.650946 3.686700 -7.125000 0.000000 0.000000 -18.707300 50.778000 -2.746100 -3.380506 3.045683 -2.723932 72.148147 17.380095 26.421219 -16.551699 23.974915 -3.341804 0.435053 0.412673 -21.300464 29.998426 15.840759 8.668200 7.125000 0.000000 0.000000 34.935000 -12.916800 33.400500 
-1.751101 17.959453 1.416871 -32.465159 88.034578 -15.400700 1.530856 0.286077 1.020005 -11.509404 -0.629193 -35.198271 1.107306 10.000300 27.681551 -1.115908 6.483459 5.521761 1.585300 -7.942900 -22.540900 -1.171702 -0.460723 1.546971 15.389768 10.637460 -36.749297 -2.207785 -11.736061 32.454926 0.492453 -4.433240 1.705894 -1.390900 7.461600 -21.090400 -16.743086 -1.416784 16.326669 34.802688 -15.028579 35.580288 -3.732572 -1.511527 -33.212306 -1.385349 8.150788 -23.171824 -4.371630 13.399880 -14.944617 -1.614500 6.828900 -1.779000 -2.476956 5.079013 -5.792134 -104.641401 -41.129525 89.146553 10.868558 -17.110752 -1.982793 1.425213 -1.696002 -16.052774 11.621712 22.276241 4.485300 -7.125000 0.000000 0.000000 -19.474500 53.712700 -4.298500 -3.415318 3.113708 -2.682420 72.026146 15.381987 27.262595 -16.926723 24.463125 -3.502176 0.435913 0.426313 -22.650314 30.066556 15.622991 8.572900 7.125000 0.000000 0.000000 35.007300 -13.100100 33.335600 
-1.726285 17.973159 1.418532 -35.986528 87.939359 -18.749647 1.625806 0.498666 1.053443 -11.409803 -0.955395 -35.023170 0.998173 9.930299 27.252828 -1.194542 6.810142 5.537906 1.591300 -7.957100 -22.583900 -1.018477 -0.197425 1.391265 15.388974 10.544939 -36.532942 -2.172614 -11.619373 32.218235 0.575224 -4.674769 1.675159 -1.324000 7.287300 -20.569200 -17.056186 -1.594251 16.224478 35.249870 -15.253291 35.293460 -3.806932 -1.557536 -33.157372 -1.440786 8.312575 -23.108300 -4.279189 13.603082 -14.804402 -1.620300 6.901800 -1.721800 -2.383891 5.082948 -5.889129 -107.642684 -40.755339 93.006759 11.796733 -18.689717 -2.463418 1.629884 -1.815828 -24.103665 13.015209 24.150720 5.576700 -7.125000 0.000000 0.000000 -19.201300 56.080100 -5.358600 -3.463270 3.187818 -2.641482 71.937496 13.375659 27.864579 -17.281709 24.920709 -3.655909 0.432513 0.438436 -24.446646 30.047770 15.129401 8.302500 7.125000 0.000000 0.000000 35.104400 -13.549300 33.046600 
-1.701366 17.987488 1.422789 -38.285631 87.945339 -20.878157 1.701371 0.642173 1.074009 -11.390793 -1.220136 -34.885216 0.905474 9.849760 26.870969 -1.250755 7.039800 5.569305 1.599900 -7.977500 -22.645900 -0.882085 -0.015061 1.286935 15.308197 10.471267 -36.351834 -2.125332 -11.507562 31.946752 0.648613 -4.899627 1.692705 -1.217000 6.997600 -19.708300 -17.367697 -1.804143 16.063325 35.500820 -15.486714 35.148897 -3.855455 -1.626373 -33.153238 -1.482935 8.458822 -22.926804 -4.154181 13.771301 -14.885671 -1.635400 6.961000 -1.751200 -2.263270 5.069972 -5.989659 -110.623124 -40.408429 96.732567 12.596382 -20.000770 -2.959203 1.836949 -1.904454 -30.931984 13.703113 25.627202 6.323600 -7.125000 0.000000 0.000000 -19.460300 57.892300 -6.297200 -3.493909 3.223465 -2.628375 71.804074 11.393767 28.281992 -17.594825 25.319096 -3.788971 0.431644 0.452176 -25.907105 30.059724 14.876121 8.168600 7.125000 0.000000 0.000000 35.161600 -13.776300 32.910500 
-1.676135 18.000674 1.426215 -47.339955 87.274567 -29.798508 2.166078 1.154067 1.185370 -11.135405 -1.441188 -34.790707 0.803555 9.831737 26.524956 -1.269468 7.217022 5.586533 1.620400 -8.026000 -22.793100 -0.367725 0.533027 1.099995 15.485661 10.378255 -36.039883 -2.099420 -11.352648 31.706686 0.676345 -4.923417 1.672563 -1.148300 6.804200 -19.136700 -17.265451 -1.918705 15.917520 35.884697 -15.574458 34.993783 -4.125667 -1.605125 -33.106939 -1.690616 8.618896 -22.600564 -3.935282 13.937980 -15.088672 -1.630600 7.014700 -1.841900 -2.118756 5.071634 -6.061535 -113.620824 -40.055735 100.438805 13.259156 -21.018738 -3.434398 2.008898 -1.990046 -36.850919 14.375220 26.324226 6.944600 -7.125000 0.000000 0.000000 -19.203200 58.940000 -6.697500 -3.549370 3.305004 -2.586270 71.579484 9.484811 28.682577 -17.884876 25.659480 -3.910601 0.425246 0.461965 -27.007432 29.708148 14.659517 7.937200 7.125000 0.000000 0.000000 35.056500 -14.052100 32.476600 
